<svg width="228" height="78" viewBox="0 0 228 78" fill="none" xmlns="http://www.w3.org/2000/svg">
<path d="M7.78125 39.7812C7.78125 32.5625 7.90625 26.1562 8.15625 20.5625L1.82812 19.5781C1.42188 18.4219 1.10938 17.1406 0.890625 15.7344C0.671875 14.3281 0.5625 12.9688 0.5625 11.6562C0.5625 10.6563 0.640625 9.5625 0.796875 8.375C4.89062 6.9375 10.2969 5.90625 17.0156 5.28125C23.7344 4.65625 30.2969 4.34375 36.7031 4.34375C41.4844 4.34375 45.5938 4.71875 49.0312 5.46875C52.4688 6.21875 55.3438 7.92187 57.6562 10.5781C60 13.2031 61.1719 17.1406 61.1719 22.3906C61.1719 24.5469 60.8281 26.9375 60.1406 29.5625C59.4531 32.1562 58.5 34.75 57.2812 37.3438C56.1562 39.7188 54.875 41.9844 53.4375 44.1406C52.0312 46.2656 50.5625 48.0938 49.0312 49.625C49.9375 52 50.875 54.1719 51.8438 56.1406C52.8125 58.0781 54.2969 60.4375 56.2969 63.2188L62.8594 60.4531C65.2969 62.5469 66.7188 65.3281 67.125 68.7969C67.125 68.9844 66.375 69.875 64.875 71.4688C63.4062 73.0625 61.4844 74.5469 59.1094 75.9219C56.7344 77.2656 54.0625 77.9375 51.0938 77.9375C48.7812 77.9375 46.7031 77.5312 44.8594 76.7188C43.0469 75.9062 41.5469 74.4844 40.3594 72.4531C39.2031 70.4531 38.2812 68.0781 37.5938 65.3281C36.9062 62.5781 36.4219 59.8594 36.1406 57.1719L25.4531 56.7031C25.7344 59.1406 26.0938 61.6562 26.5312 64.25C26.9688 66.8125 27.2344 68.3594 27.3281 68.8906C27.8594 71.9844 28.2031 74.0938 28.3594 75.2188C26.9219 76.0938 25.1719 76.7656 23.1094 77.2344C21.0781 77.7031 19 77.9375 16.875 77.9375C14.4375 77.9375 12.0781 77.6094 9.79688 76.9531C9.10938 74.2031 8.59375 69.3906 8.25 62.5156C7.9375 55.6094 7.78125 48.0312 7.78125 39.7812ZM36.9375 45.4062C38.0312 42.2812 38.8906 38.8906 39.5156 35.2344C40.1719 31.5469 40.7656 27.1562 41.2969 22.0625C40.3906 21.7188 39.2031 21.4531 37.7344 21.2656C36.2656 21.0781 34.8438 20.9844 33.4688 20.9844C30.3438 20.9844 28 21.0625 26.4375 21.2188C26.0938 32.9688 25.7188 41.2969 25.3125 46.2031L36.9375 45.4062ZM69.2344 49.2969C69.2344 43.6406 70.1406 38.7344 71.9531 34.5781C73.7656 30.4219 76.5469 27.2031 80.2969 24.9219C84.0469 22.6094 88.75 21.4531 94.4062 21.4531C100.656 21.4531 105.562 22.625 109.125 24.9688C112.688 27.2812 115.172 30.5 116.578 34.625C118.016 38.75 118.734 43.7969 118.734 49.7656C118.734 55.1719 117.781 60 115.875 64.25C114 68.4688 111.156 71.8125 107.344 74.2812C103.562 76.7188 98.9219 77.9375 93.4219 77.9375C84.9219 77.9375 78.7656 75.3281 74.9531 70.1094C71.1406 64.8594 69.2344 57.9219 69.2344 49.2969ZM95.3438 64.2031C96.9375 64.2031 97.9062 64.0781 98.25 63.8281C98.9688 62.5781 99.5156 60.8125 99.8906 58.5312C100.266 56.25 100.453 53.7812 100.453 51.125C100.453 48.6875 100.297 46.4062 99.9844 44.2812C99.6719 42.125 99.2344 40.4375 98.6719 39.2188C98.3281 38.8125 97.6406 38.5156 96.6094 38.3281C95.5781 38.1094 94.4531 38 93.2344 38C91.6406 38 90.5469 38.1719 89.9531 38.5156C88.3906 41.2031 87.6094 44.9375 87.6094 49.7188C87.6094 51.9688 87.7812 54.2656 88.125 56.6094C88.4688 58.9531 88.9062 61.0781 89.4375 62.9844C89.8125 63.3906 90.5781 63.7031 91.7344 63.9219C92.8906 64.1094 94.0938 64.2031 95.3438 64.2031ZM124.734 49.7656C124.734 44.3594 125.641 39.5312 127.453 35.2812C129.266 31.0312 132.062 27.6719 135.844 25.2031C139.656 22.7031 144.406 21.4531 150.094 21.4531C152.031 21.4531 154.25 21.5781 156.75 21.8281C159.281 22.0469 161.703 22.3906 164.016 22.8594L164.953 23.5156C166.359 24.4844 167.391 25.2656 168.047 25.8594C168.734 26.4219 169.453 27.2188 170.203 28.25C170.203 29.9375 169.969 32.2656 169.5 35.2344C169.062 38.1719 168.5 40.9062 167.812 43.4375C167.125 45.9688 166.469 47.5938 165.844 48.3125C164.812 48.8438 163.141 49.1094 160.828 49.1094C159.703 49.1094 158.641 49.0312 157.641 48.875C156.672 48.6875 155.938 48.4531 155.438 48.1719L154.453 39.5C153.984 38.9688 152.906 38.5469 151.219 38.2344C149.562 37.8906 148.031 37.7188 146.625 37.7188C146.188 37.7188 145.781 37.75 145.406 37.8125C144.688 39.2812 144.141 41.1562 143.766 43.4375C143.391 45.7188 143.203 48.0469 143.203 50.4219C143.203 53.8594 143.766 56.7812 144.891 59.1875C146.016 61.5625 148.312 62.75 151.781 62.75C153.5 62.75 155.188 62.4688 156.844 61.9062C158.531 61.3438 160.656 60.4844 163.219 59.3281C164.281 58.8281 165.078 58.4688 165.609 58.25C166.859 59.5 167.844 60.8125 168.562 62.1875C169.281 63.5625 169.75 65.3281 169.969 67.4844C167.969 69.8281 165.156 72.1562 161.531 74.4688C157.938 76.7812 153.734 77.9375 148.922 77.9375C143.797 77.9375 139.406 76.7031 135.75 74.2344C132.125 71.7344 129.375 68.3594 127.5 64.1094C125.656 59.8281 124.734 55.0469 124.734 49.7656ZM178.547 46.7188C178.547 32.0938 178.828 22.0625 179.391 16.625L174.094 15.6875C173.344 12.8125 172.969 9.71875 172.969 6.40625C173.438 5.8125 174.312 5.07813 175.594 4.20312C176.875 3.32812 178.359 2.5625 180.047 1.90625C181.766 1.25 183.469 0.921875 185.156 0.921875C189.344 0.921875 192.594 1.82812 194.906 3.64062C197.25 5.45313 198.422 8.54688 198.422 12.9219C198.422 15.1094 198.266 18.4688 197.953 23C197.641 27.5 197.062 32.9688 196.219 39.4062C195.375 45.8438 194.25 52.5625 192.844 59.5625L193.641 60.0312C196.109 56.625 198.484 52.875 200.766 48.7812C203.047 44.6562 204.859 40.8281 206.203 37.2969L202.172 36.3125C201.797 34.1875 201.609 31.6719 201.609 28.7656V27.0781C202.797 25.5781 204.422 24.2656 206.484 23.1406C208.578 22.0156 211.172 21.4531 214.266 21.4531C216.484 21.4531 218.406 21.875 220.031 22.7188C221.656 23.5312 222.906 24.6719 223.781 26.1406C224.656 27.6094 225.094 29.2969 225.094 31.2031C225.094 32.6406 224.875 34 224.438 35.2812C224 36.5312 223.344 37.8594 222.469 39.2656C220.219 42.8281 216.297 47.8906 210.703 54.4531C212.578 57.0781 214.406 59.3594 216.188 61.2969C216.875 60.9531 217.516 60.5 218.109 59.9375C218.734 59.375 219.531 58.5625 220.5 57.5L221.531 56.4219L227.297 60.7812C227.078 66.3438 225.875 70.5938 223.688 73.5312C221.531 76.4375 218.672 77.8906 215.109 77.8906C211.203 77.8906 208.266 76.7031 206.297 74.3281C204.328 71.9531 202.891 68.5938 201.984 64.25C198.547 67.9688 195.516 71.0938 192.891 73.625C190.297 76.125 188.594 77.5625 187.781 77.9375C186.062 77.9375 184.422 77.7344 182.859 77.3281C181.297 76.9219 180.141 76.2812 179.391 75.4062C179.047 70.9688 178.812 66.5781 178.688 62.2344C178.594 57.8594 178.547 52.6875 178.547 46.7188Z" fill="#3F3A3A"/>
<path d="M8.15625 20.5625L9.15525 20.6071L9.19526 19.7121L8.30996 19.5744L8.15625 20.5625ZM1.82812 19.5781L0.884665 19.9096L1.08305 20.4743L1.67442 20.5662L1.82812 19.5781ZM0.796875 8.375L0.465562 7.43148L-0.114393 7.63513L-0.194579 8.24454L0.796875 8.375ZM57.6562 10.5781L56.902 11.2348L56.9103 11.2441L57.6562 10.5781ZM60.1406 29.5625L61.1073 29.8187L61.108 29.8159L60.1406 29.5625ZM57.2812 37.3438L58.185 37.7718L58.1863 37.769L57.2812 37.3438ZM53.4375 44.1406L52.6054 43.5859L52.6036 43.5888L53.4375 44.1406ZM49.0312 49.625L48.3241 48.9179L47.8659 49.3761L48.097 49.9815L49.0312 49.625ZM51.8438 56.1406L50.9465 56.5821L50.9493 56.5878L51.8438 56.1406ZM56.2969 63.2188L55.485 63.8026L55.9505 64.4499L56.6852 64.1403L56.2969 63.2188ZM62.8594 60.4531L63.511 59.6946L63.0414 59.2912L62.471 59.5316L62.8594 60.4531ZM67.125 68.7969H68.125V68.7385L68.1182 68.6805L67.125 68.7969ZM64.875 71.4688L64.1468 70.7833L64.1396 70.7911L64.875 71.4688ZM59.1094 75.9219L59.6018 76.7923L59.6104 76.7873L59.1094 75.9219ZM44.8594 76.7188L44.4503 77.6313L44.4561 77.6338L44.8594 76.7188ZM40.3594 72.4531L39.4936 72.9536L39.4961 72.9578L40.3594 72.4531ZM36.1406 57.1719L37.1352 57.0678L37.0455 56.2106L36.1844 56.1728L36.1406 57.1719ZM25.4531 56.7031L25.4969 55.7041L24.3253 55.6527L24.4597 56.8177L25.4531 56.7031ZM26.5312 64.25L25.5452 64.4163L25.5455 64.4183L26.5312 64.25ZM27.3281 68.8906L28.3137 68.7214L28.3129 68.7168L27.3281 68.8906ZM28.3594 75.2188L28.8793 76.073L29.4402 75.7315L29.3499 75.0812L28.3594 75.2188ZM23.1094 77.2344L22.8878 76.2592L22.8845 76.26L23.1094 77.2344ZM9.79688 76.9531L8.82673 77.1957L8.96652 77.7548L9.52042 77.9142L9.79688 76.9531ZM8.25 62.5156L7.25101 62.5608L7.25125 62.5656L8.25 62.5156ZM36.9375 45.4062L37.0059 46.4039L37.6636 46.3588L37.8814 45.7366L36.9375 45.4062ZM39.5156 35.2344L38.5311 35.0592L38.5299 35.0659L39.5156 35.2344ZM41.2969 22.0625L42.2915 22.1662L42.3713 21.4005L41.6515 21.1275L41.2969 22.0625ZM26.4375 21.2188L26.338 20.2237L25.4636 20.3111L25.4379 21.1895L26.4375 21.2188ZM25.3125 46.2031L24.3159 46.1206L24.2199 47.2804L25.3809 47.2008L25.3125 46.2031ZM8.78125 39.7812C8.78125 32.5734 8.90607 26.1825 9.15525 20.6071L7.15725 20.5179C6.90642 26.13 6.78125 32.5516 6.78125 39.7812H8.78125ZM8.30996 19.5744L1.98183 18.59L1.67442 20.5662L8.00254 21.5506L8.30996 19.5744ZM2.77159 19.2466C2.38857 18.1565 2.08955 16.9358 1.87874 15.5807L-0.0974915 15.8881C0.129204 17.3454 0.455184 18.6872 0.884665 19.9096L2.77159 19.2466ZM1.87874 15.5807C1.66725 14.2211 1.5625 12.9132 1.5625 11.6562H-0.4375C-0.4375 13.0243 -0.323496 14.4352 -0.0974915 15.8881L1.87874 15.5807ZM1.5625 11.6562C1.5625 10.7074 1.6367 9.65786 1.78833 8.50546L-0.194579 8.24454C-0.355447 9.46714 -0.4375 10.6051 -0.4375 11.6562H1.5625ZM1.12819 9.31852C5.1146 7.91871 10.4312 6.89807 17.1082 6.27695L16.923 4.28555C10.1625 4.91443 4.66665 5.95629 0.465562 7.43148L1.12819 9.31852ZM17.1082 6.27695C23.7978 5.65466 30.3294 5.34375 36.7031 5.34375V3.34375C30.2644 3.34375 23.6709 3.65784 16.923 4.28555L17.1082 6.27695ZM36.7031 5.34375C41.4364 5.34375 45.4705 5.71538 48.8181 6.44577L49.2444 4.49173C45.717 3.72212 41.5324 3.34375 36.7031 3.34375V5.34375ZM48.8181 6.44577C52.0452 7.14987 54.7306 8.74052 56.902 11.2347L58.4105 9.92151C55.9569 7.10323 52.8923 5.28763 49.2444 4.49173L48.8181 6.44577ZM56.9103 11.2441C59.0261 13.6138 60.1719 17.2686 60.1719 22.3906H62.1719C62.1719 17.0127 60.9739 12.7924 58.4022 9.91211L56.9103 11.2441ZM60.1719 22.3906C60.1719 24.4427 59.8444 26.7466 59.1733 29.3091L61.108 29.8159C61.8119 27.1284 62.1719 24.6511 62.1719 22.3906H60.1719ZM59.174 29.3063C58.5029 31.8382 57.5711 34.3755 56.3762 36.9185L58.1863 37.769C59.4289 35.1245 60.4033 32.4743 61.1072 29.8187L59.174 29.3063ZM56.3775 36.9157C55.273 39.2474 54.0156 41.4706 52.6054 43.5859L54.2696 44.6953C55.7344 42.4981 57.0395 40.1901 58.185 37.7718L56.3775 36.9157ZM52.6036 43.5888C51.228 45.6674 49.8006 47.4414 48.3241 48.9179L49.7384 50.3321C51.3244 48.7461 52.8345 46.8638 54.2714 44.6925L52.6036 43.5888ZM48.097 49.9815C49.0126 52.381 49.9622 54.5817 50.9465 56.5821L52.741 55.6991C51.7878 53.762 50.8624 51.619 49.9655 49.2685L48.097 49.9815ZM50.9493 56.5878C51.9515 58.5921 53.4695 60.9998 55.485 63.8026L57.1088 62.6349C55.1242 59.8752 53.6735 57.5641 52.7382 55.6934L50.9493 56.5878ZM56.6852 64.1403L63.2477 61.3746L62.471 59.5316L55.9085 62.2972L56.6852 64.1403ZM62.2078 61.2117C64.4375 63.127 65.752 65.6702 66.1318 68.9132L68.1182 68.6805C67.6855 64.986 66.1562 61.9668 63.511 59.6946L62.2078 61.2117ZM66.125 68.7969C66.125 68.6559 66.1573 68.5539 66.1696 68.518C66.1846 68.4739 66.1986 68.4466 66.2012 68.4415C66.2062 68.4319 66.1984 68.4481 66.1635 68.4983C66.0957 68.5957 65.9779 68.7472 65.7976 68.9613C65.4406 69.3853 64.8931 69.9905 64.1468 70.7834L65.6032 72.1541C66.3569 71.3533 66.9344 70.7163 67.3274 70.2496C67.5221 70.0184 67.6856 69.8125 67.8053 69.6404C67.8641 69.5558 67.9267 69.4592 67.9785 69.3588C68.0081 69.3013 68.125 69.0802 68.125 68.7969H66.125ZM64.1396 70.7911C62.7545 72.2942 60.9183 73.7191 58.6083 75.0564L59.6104 76.7873C62.0505 75.3746 64.0581 73.8308 65.6104 72.1464L64.1396 70.7911ZM58.6169 75.0515C56.4052 76.3029 53.9055 76.9375 51.0938 76.9375V78.9375C54.2195 78.9375 57.0636 78.2283 59.6018 76.7922L58.6169 75.0515ZM51.0938 76.9375C48.8997 76.9375 46.9619 76.5525 45.2626 75.8037L44.4561 77.6338C46.4444 78.51 48.6628 78.9375 51.0938 78.9375V76.9375ZM45.2684 75.8062C43.6793 75.0939 42.3249 73.8338 41.2227 71.9484L39.4961 72.9578C40.7688 75.1349 42.4145 76.7186 44.4503 77.6313L45.2684 75.8062ZM41.2251 71.9526C40.1247 70.0492 39.2337 67.7648 38.5639 65.0856L36.6236 65.5707C37.3288 68.3914 38.2816 70.8571 39.4936 72.9536L41.2251 71.9526ZM38.5639 65.0856C37.8872 62.3789 37.4113 59.7064 37.1352 57.0678L35.1461 57.276C35.4324 60.0123 35.9253 62.7774 36.6236 65.5707L38.5639 65.0856ZM36.1844 56.1728L25.4969 55.7041L25.4093 57.7022L36.0968 58.1709L36.1844 56.1728ZM24.4597 56.8177C24.7431 59.2737 25.105 61.8066 25.5452 64.4163L27.5173 64.0837C27.0825 61.5059 26.7257 59.0075 26.4465 56.5885L24.4597 56.8177ZM25.5455 64.4183C25.9828 66.9794 26.249 68.5297 26.3433 69.0644L28.3129 68.7168C28.2198 68.189 27.9547 66.6456 27.517 64.0817L25.5455 64.4183ZM26.3426 69.0599C26.8741 72.1553 27.2152 74.2495 27.3689 75.3563L29.3499 75.0812C29.1911 73.938 28.8447 71.8135 28.3137 68.7214L26.3426 69.0599ZM27.8394 74.3645C26.5144 75.1711 24.8708 75.8086 22.8878 76.2592L23.331 78.2095C25.473 77.7227 27.3294 77.0164 28.8793 76.073L27.8394 74.3645ZM22.8845 76.26C20.9284 76.7114 18.9258 76.9375 16.875 76.9375V78.9375C19.0742 78.9375 21.2278 78.6949 23.3342 78.2088L22.8845 76.26ZM16.875 76.9375C14.5285 76.9375 12.2623 76.6218 10.0733 75.9921L9.52042 77.9142C11.8939 78.5969 14.3465 78.9375 16.875 78.9375V76.9375ZM10.767 76.7106C10.1058 74.0656 9.59255 69.3415 9.24875 62.4657L7.25125 62.5656C7.59495 69.4397 8.11298 74.3406 8.82673 77.1957L10.767 76.7106ZM9.24898 62.4704C8.93727 55.5818 8.78125 48.019 8.78125 39.7812H6.78125C6.78125 48.0435 6.93773 55.637 7.25102 62.5608L9.24898 62.4704ZM37.8814 45.7366C38.9956 42.5531 39.868 39.1077 40.5013 35.4029L38.5299 35.0659C37.9132 38.6736 37.0669 42.0094 35.9936 45.0759L37.8814 45.7366ZM40.5002 35.4096C41.1618 31.6916 41.7586 27.2759 42.2915 22.1662L40.3023 21.9588C39.7727 27.0366 39.1819 31.4021 38.5311 35.0592L40.5002 35.4096ZM41.6515 21.1275C40.644 20.7453 39.3714 20.4665 37.861 20.2737L37.6077 22.2576C39.0348 22.4398 40.1372 22.6922 40.9422 22.9975L41.6515 21.1275ZM37.861 20.2737C36.3534 20.0812 34.8892 19.9844 33.4688 19.9844V21.9844C34.7983 21.9844 36.1778 22.075 37.6077 22.2576L37.861 20.2737ZM33.4688 19.9844C30.3362 19.9844 27.9519 20.0623 26.338 20.2237L26.537 22.2138C28.0481 22.0627 30.3513 21.9844 33.4688 21.9844V19.9844ZM25.4379 21.1895C25.0942 32.9393 24.7197 41.2436 24.3159 46.1206L26.3091 46.2856C26.7178 41.3501 27.0933 32.9982 27.4371 21.248L25.4379 21.1895ZM25.3809 47.2008L37.0059 46.4039L36.8691 44.4086L25.2441 45.2055L25.3809 47.2008ZM80.2969 24.9219L80.8166 25.7762L80.8218 25.773L80.2969 24.9219ZM109.125 24.9688L108.575 25.8042L108.581 25.8075L109.125 24.9688ZM116.578 34.625L115.632 34.9477L115.634 34.9541L116.578 34.625ZM115.875 64.25L114.963 63.8408L114.961 63.8439L115.875 64.25ZM107.344 74.2812L107.886 75.1217L107.887 75.1206L107.344 74.2812ZM74.9531 70.1094L74.144 70.697L74.1456 70.6993L74.9531 70.1094ZM98.25 63.8281L98.8382 64.6369L99.0106 64.5114L99.1169 64.3266L98.25 63.8281ZM99.9844 44.2812L98.9947 44.4247L98.995 44.4267L99.9844 44.2812ZM98.6719 39.2188L99.5798 38.7997L99.5229 38.6764L99.4353 38.5728L98.6719 39.2188ZM96.6094 38.3281L96.4019 39.3064L96.4161 39.3094L96.4305 39.312L96.6094 38.3281ZM89.9531 38.5156L89.4521 37.6502L89.2222 37.7833L89.0886 38.013L89.9531 38.5156ZM89.4375 62.9844L88.4742 63.2528L88.539 63.4853L88.7027 63.6627L89.4375 62.9844ZM91.7344 63.9219L91.5485 64.9044L91.5614 64.9069L91.5743 64.909L91.7344 63.9219ZM70.2344 49.2969C70.2344 43.7452 71.1241 38.9809 72.8698 34.9779L71.0365 34.1784C69.1572 38.4878 68.2344 43.5361 68.2344 49.2969H70.2344ZM72.8698 34.9779C74.6028 31.0038 77.2486 27.9467 80.8166 25.7762L79.7772 24.0675C75.8451 26.4595 72.9284 29.84 71.0365 34.1784L72.8698 34.9779ZM80.8218 25.773C84.375 23.5819 88.8835 22.4531 94.4062 22.4531V20.4531C88.6165 20.4531 83.7187 21.6369 79.772 24.0707L80.8218 25.773ZM94.4062 22.4531C100.547 22.4531 105.236 23.6069 108.575 25.8042L109.675 24.1333C105.889 21.6431 100.766 20.4531 94.4062 20.4531V22.4531ZM108.581 25.8075C111.95 27.9945 114.296 31.0289 115.632 34.9477L117.525 34.3023C116.048 29.9711 113.425 26.568 109.669 24.13L108.581 25.8075ZM115.634 34.9541C117.024 38.9424 117.734 43.8707 117.734 49.7656H119.734C119.734 43.723 119.008 38.5576 117.522 34.2959L115.634 34.9541ZM117.734 49.7656C117.734 55.0533 116.803 59.7385 114.963 63.8408L116.787 64.6592C118.76 60.2615 119.734 55.2904 119.734 49.7656H117.734ZM114.961 63.8439C113.164 67.8884 110.447 71.0804 106.8 73.4419L107.887 75.1206C111.865 72.5446 114.836 69.0491 116.789 64.6561L114.961 63.8439ZM106.802 73.4408C103.215 75.753 98.7727 76.9375 93.4219 76.9375V78.9375C99.0711 78.9375 103.91 77.6845 107.886 75.1217L106.802 73.4408ZM93.4219 76.9375C85.1309 76.9375 79.3281 74.4029 75.7606 69.5195L74.1456 70.6993C78.2031 76.2534 84.7129 78.9375 93.4219 78.9375V76.9375ZM75.7623 69.5218C72.1089 64.4909 70.2344 57.7796 70.2344 49.2969H68.2344C68.2344 58.0641 70.1723 65.2278 74.144 70.697L75.7623 69.5218ZM95.3438 65.2031C96.1603 65.2031 96.8488 65.1714 97.3936 65.1012C97.8809 65.0383 98.4411 64.9256 98.8382 64.6369L97.6618 63.0194C97.7151 62.9806 97.6191 63.0555 97.1377 63.1176C96.7137 63.1723 96.1209 63.2031 95.3438 63.2031V65.2031ZM99.1169 64.3266C99.9205 62.929 100.493 61.0304 100.877 58.6935L98.9039 58.369C98.538 60.5946 98.017 62.2273 97.3831 63.3297L99.1169 64.3266ZM100.877 58.6935C101.262 56.3514 101.453 53.8278 101.453 51.125H99.4531C99.4531 53.7347 99.2689 56.1486 98.9039 58.369L100.877 58.6935ZM101.453 51.125C101.453 48.6452 101.294 46.3148 100.974 44.1358L98.995 44.4267C99.2996 46.4977 99.4531 48.7298 99.4531 51.125H101.453ZM100.974 44.1378C100.655 41.9377 100.2 40.1431 99.5798 38.7997L97.7639 39.6378C98.2689 40.7319 98.6886 42.3123 98.9947 44.4247L100.974 44.1378ZM99.4353 38.5728C98.8526 37.8843 97.8592 37.539 96.7883 37.3443L96.4305 39.312C97.4221 39.4923 97.8036 39.7407 97.9085 39.8647L99.4353 38.5728ZM96.8169 37.3499C95.7078 37.1146 94.5123 37 93.2344 37V39C94.3939 39 95.4484 39.1041 96.4019 39.3064L96.8169 37.3499ZM93.2344 37C92.406 37 91.6786 37.0444 91.0635 37.141C90.4603 37.2358 89.901 37.3903 89.4521 37.6502L90.4542 39.3811C90.599 39.2972 90.8834 39.1939 91.374 39.1168C91.8526 39.0416 92.469 39 93.2344 39V37ZM89.0886 38.013C87.402 40.914 86.6094 44.8481 86.6094 49.7188H88.6094C88.6094 45.0269 89.3793 41.4922 90.8176 39.0182L89.0886 38.013ZM86.6094 49.7188C86.6094 52.0198 86.7852 54.3652 87.1356 56.7545L89.1144 56.4643C88.7773 54.166 88.6094 51.9177 88.6094 49.7188H86.6094ZM87.1356 56.7545C87.4843 59.132 87.9297 61.2991 88.4742 63.2528L90.4008 62.7159C89.8828 60.8572 89.4532 58.7742 89.1144 56.4643L87.1356 56.7545ZM88.7027 63.6627C89.3158 64.3268 90.374 64.6823 91.5485 64.9044L91.9203 62.9393C90.7822 62.724 90.3092 62.4544 90.1723 62.3061L88.7027 63.6627ZM91.5743 64.909C92.7869 65.1056 94.0437 65.2031 95.3438 65.2031V63.2031C94.1438 63.2031 92.9944 63.1131 91.8944 62.9348L91.5743 64.909ZM135.844 25.2031L136.39 26.0405L136.392 26.0394L135.844 25.2031ZM156.75 21.8281L156.65 22.8233L156.664 22.8244L156.75 21.8281ZM164.016 22.8594L164.589 22.0401L164.418 21.9207L164.214 21.8793L164.016 22.8594ZM164.953 23.5156L164.38 24.3349L164.386 24.3391L164.953 23.5156ZM168.047 25.8594L167.376 26.6009L167.394 26.6176L167.414 26.6333L168.047 25.8594ZM170.203 28.25H171.203V27.9248L171.012 27.6618L170.203 28.25ZM169.5 35.2344L168.512 35.0784L168.511 35.0871L169.5 35.2344ZM165.844 48.3125L166.302 49.2015L166.472 49.1136L166.598 48.9687L165.844 48.3125ZM157.641 48.875L157.451 49.8568L157.468 49.8602L157.486 49.863L157.641 48.875ZM155.438 48.1719L154.444 48.2847L154.502 48.7928L154.947 49.0434L155.438 48.1719ZM154.453 39.5L155.447 39.3872L155.411 39.0744L155.203 38.8384L154.453 39.5ZM151.219 38.2344L151.016 39.2135L151.026 39.2157L151.037 39.2177L151.219 38.2344ZM145.406 37.8125L145.242 36.8261L144.734 36.9107L144.508 37.3729L145.406 37.8125ZM144.891 59.1875L143.985 59.611L143.987 59.6156L144.891 59.1875ZM156.844 61.9062L156.528 60.9576L156.522 60.9594L156.844 61.9062ZM163.219 59.3281L163.63 60.2396L163.637 60.2363L163.645 60.2329L163.219 59.3281ZM165.609 58.25L166.316 57.5429L165.845 57.0715L165.229 57.3253L165.609 58.25ZM169.969 67.4844L170.729 68.1335L171.007 67.8085L170.964 67.3834L169.969 67.4844ZM161.531 74.4688L160.993 73.6257L160.99 73.6278L161.531 74.4688ZM135.75 74.2344L135.182 75.0576L135.19 75.0631L135.75 74.2344ZM127.5 64.1094L126.582 64.5049L126.585 64.513L127.5 64.1094ZM125.734 49.7656C125.734 44.4716 126.622 39.7803 128.373 35.6735L126.533 34.889C124.66 39.2822 123.734 44.2472 123.734 49.7656H125.734ZM128.373 35.6735C130.11 31.6011 132.779 28.3984 136.39 26.0405L135.297 24.3658C131.346 26.9453 128.421 30.4614 126.533 34.889L128.373 35.6735ZM136.392 26.0394C140.006 23.6699 144.553 22.4531 150.094 22.4531V20.4531C144.26 20.4531 139.307 21.7363 135.295 24.3669L136.392 26.0394ZM150.094 22.4531C151.99 22.4531 154.174 22.5756 156.65 22.8232L156.85 20.8331C154.326 20.5807 152.073 20.4531 150.094 20.4531V22.4531ZM156.664 22.8244C159.16 23.0401 161.544 23.3788 163.817 23.8394L164.214 21.8793C161.862 21.4025 159.402 21.0536 156.836 20.8318L156.664 22.8244ZM163.442 23.6786L164.38 24.3349L165.527 22.6964L164.589 22.0401L163.442 23.6786ZM164.386 24.3391C165.783 25.3013 166.77 26.0526 167.376 26.6009L168.718 25.1178C168.011 24.4787 166.936 23.6674 165.52 22.6921L164.386 24.3391ZM167.414 26.6333C168.013 27.1238 168.675 27.8488 169.394 28.8382L171.012 27.6618C170.231 26.5887 169.456 25.7199 168.68 25.0854L167.414 26.6333ZM169.203 28.25C169.203 29.8599 168.978 32.1281 168.512 35.0784L170.488 35.3903C170.959 32.4032 171.203 30.0151 171.203 28.25H169.203ZM168.511 35.0871C168.078 37.9908 167.523 40.6865 166.847 43.1754L168.778 43.6996C169.477 41.126 170.047 38.3529 170.489 35.3817L168.511 35.0871ZM166.847 43.1754C166.51 44.4196 166.185 45.4176 165.877 46.1802C165.562 46.9611 165.291 47.4236 165.089 47.6563L166.598 48.9687C167.021 48.4826 167.391 47.7733 167.732 46.9292C168.08 46.0668 168.428 44.9867 168.778 43.6996L166.847 43.1754ZM165.386 47.4235C164.578 47.8398 163.11 48.1094 160.828 48.1094V50.1094C163.172 50.1094 165.047 49.8477 166.302 49.2015L165.386 47.4235ZM160.828 48.1094C159.749 48.1094 158.739 48.0344 157.795 47.887L157.486 49.863C158.543 50.0281 159.657 50.1094 160.828 50.1094V48.1094ZM157.831 47.8932C156.903 47.7137 156.29 47.5043 155.928 47.3003L154.947 49.0434C155.585 49.4019 156.441 49.6613 157.451 49.8568L157.831 47.8932ZM156.431 48.0591L155.447 39.3872L153.46 39.6128L154.444 48.2847L156.431 48.0591ZM155.203 38.8384C154.817 38.4009 154.261 38.0902 153.657 37.8539C153.038 37.6117 152.28 37.4139 151.401 37.2511L151.037 39.2177C151.845 39.3673 152.469 39.5367 152.929 39.7164C153.403 39.902 153.621 40.0679 153.703 40.1616L155.203 38.8384ZM151.422 37.2552C149.712 36.9003 148.112 36.7188 146.625 36.7188V38.7188C147.951 38.7188 149.413 38.8809 151.016 39.2135L151.422 37.2552ZM146.625 36.7188C146.14 36.7188 145.679 36.7533 145.242 36.8261L145.571 38.7989C145.884 38.7467 146.235 38.7188 146.625 38.7188V36.7188ZM144.508 37.3729C143.733 38.9572 143.164 40.9342 142.779 43.2753L144.752 43.5997C145.118 41.3783 145.642 39.6053 146.304 38.2521L144.508 37.3729ZM142.779 43.2753C142.395 45.6116 142.203 47.994 142.203 50.4219H144.203C144.203 48.0997 144.386 45.8259 144.752 43.5997L142.779 43.2753ZM142.203 50.4219C142.203 53.9643 142.782 57.0392 143.985 59.611L145.797 58.764C144.749 56.5233 144.203 53.7544 144.203 50.4219H142.203ZM143.987 59.6156C145.332 62.4553 148.073 63.75 151.781 63.75V61.75C148.552 61.75 146.699 60.6697 145.794 58.7594L143.987 59.6156ZM151.781 63.75C153.611 63.75 155.407 63.4502 157.165 62.8531L156.522 60.9594C154.968 61.4873 153.389 61.75 151.781 61.75V63.75ZM157.16 62.8549C158.893 62.2774 161.052 61.4029 163.63 60.2396L162.807 58.4166C160.26 59.5659 158.17 60.4101 156.528 60.9576L157.16 62.8549ZM163.645 60.2329C164.704 59.7343 165.483 59.3836 165.99 59.1747L165.229 57.3253C164.674 57.5539 163.858 57.9219 162.793 58.4233L163.645 60.2329ZM164.902 58.9571C166.09 60.1452 167.011 61.3772 167.676 62.6508L169.449 61.7242C168.677 60.2478 167.628 58.8548 166.316 57.5429L164.902 58.9571ZM167.676 62.6508C168.318 63.8778 168.763 65.509 168.974 67.5853L170.964 67.3834C170.737 65.1472 170.245 63.2472 169.449 61.7242L167.676 62.6508ZM169.208 66.8353C167.292 69.0805 164.565 71.3471 160.993 73.6257L162.069 75.3118C165.747 72.9654 168.645 70.5758 170.729 68.1335L169.208 66.8353ZM160.99 73.6278C157.578 75.8237 153.567 76.9375 148.922 76.9375V78.9375C153.901 78.9375 158.297 77.7388 162.072 75.3097L160.99 73.6278ZM148.922 76.9375C143.963 76.9375 139.775 75.7456 136.31 73.4056L135.19 75.0631C139.037 77.6607 143.631 78.9375 148.922 78.9375V76.9375ZM136.318 73.4112C132.854 71.0221 130.22 67.7962 128.415 63.7057L126.585 64.513C128.53 68.9226 131.396 72.4467 135.182 75.0576L136.318 73.4112ZM128.418 63.7138C126.635 59.5731 125.734 54.9289 125.734 49.7656H123.734C123.734 55.1648 124.677 60.0832 126.582 64.5049L128.418 63.7138ZM179.391 16.625L180.385 16.7279L180.481 15.8025L179.565 15.6403L179.391 16.625ZM174.094 15.6875L173.126 15.9399L173.288 16.5604L173.919 16.6722L174.094 15.6875ZM172.969 6.40625L172.184 5.78661L171.969 6.05909V6.40625H172.969ZM180.047 1.90625L179.69 0.972013L179.684 0.974245L180.047 1.90625ZM194.906 3.64062L194.289 4.4277L194.295 4.43168L194.906 3.64062ZM197.953 23L198.951 23.0693L198.951 23.0688L197.953 23ZM192.844 59.5625L191.863 59.3655L191.723 60.0635L192.337 60.4244L192.844 59.5625ZM193.641 60.0312L193.134 60.8932L193.917 61.354L194.45 60.6181L193.641 60.0312ZM200.766 48.7812L201.639 49.268L201.641 49.2652L200.766 48.7812ZM206.203 37.2969L207.138 37.6525L207.541 36.5941L206.44 36.3254L206.203 37.2969ZM202.172 36.3125L201.187 36.4863L201.301 37.1291L201.935 37.284L202.172 36.3125ZM201.609 27.0781L200.825 26.4574L200.609 26.7302V27.0781H201.609ZM206.484 23.1406L206.011 22.2597L206.006 22.2627L206.484 23.1406ZM220.031 22.7188L219.57 23.6062L219.577 23.6098L219.584 23.6132L220.031 22.7188ZM224.438 35.2812L225.381 35.6116L225.384 35.6044L224.438 35.2812ZM222.469 39.2656L223.314 39.7996L223.318 39.7939L222.469 39.2656ZM210.703 54.4531L209.942 53.8044L209.435 54.3988L209.889 55.0344L210.703 54.4531ZM216.188 61.2969L215.451 61.9737L215.961 62.5281L216.635 62.1913L216.188 61.2969ZM218.109 59.9375L217.44 59.1942L217.431 59.2028L217.422 59.2115L218.109 59.9375ZM220.5 57.5L219.777 56.8088L219.769 56.8174L219.761 56.8262L220.5 57.5ZM221.531 56.4219L222.134 55.6242L221.424 55.0872L220.809 55.7307L221.531 56.4219ZM227.297 60.7812L228.296 60.8205L228.317 60.2986L227.9 59.9836L227.297 60.7812ZM223.688 73.5312L222.885 72.934L222.884 72.9354L223.688 73.5312ZM201.984 64.25L202.963 64.0458L202.567 62.1465L201.25 63.5712L201.984 64.25ZM192.891 73.625L193.585 74.345L193.585 74.3448L192.891 73.625ZM187.781 77.9375V78.9375H188.001L188.2 78.8455L187.781 77.9375ZM182.859 77.3281L182.608 78.2959L182.859 77.3281ZM179.391 75.4062L178.394 75.4835L178.419 75.8091L178.631 76.057L179.391 75.4062ZM178.688 62.2344L177.688 62.2558L177.688 62.2631L178.688 62.2344ZM179.547 46.7188C179.547 32.0896 179.829 22.1071 180.385 16.7279L178.396 16.5221C177.827 22.0179 177.547 32.0979 177.547 46.7188H179.547ZM179.565 15.6403L174.268 14.7028L173.919 16.6722L179.216 17.6097L179.565 15.6403ZM175.061 15.4351C174.335 12.6513 173.969 9.64319 173.969 6.40625H171.969C171.969 9.79431 172.352 12.9737 173.126 15.9399L175.061 15.4351ZM173.754 7.02589C174.123 6.55774 174.891 5.89367 176.158 5.02893L175.03 3.37732C173.734 4.26258 172.752 5.06726 172.184 5.78661L173.754 7.02589ZM176.158 5.02893C177.367 4.20332 178.781 3.47136 180.409 2.83825L179.684 0.974245C177.937 1.65364 176.383 2.45293 175.03 3.37732L176.158 5.02893ZM180.404 2.84047C182.019 2.22377 183.601 1.92188 185.156 1.92188V-0.078125C183.336 -0.078125 181.513 0.276228 179.69 0.972033L180.404 2.84047ZM185.156 1.92188C189.213 1.92188 192.214 2.80111 194.289 4.42768L195.523 2.85357C192.973 0.855139 189.475 -0.078125 185.156 -0.078125V1.92188ZM194.295 4.43168C196.293 5.97756 197.422 8.70336 197.422 12.9219H199.422C199.422 8.39039 198.207 4.92869 195.518 2.84957L194.295 4.43168ZM197.422 12.9219C197.422 15.0732 197.268 18.404 196.955 22.9312L198.951 23.0688C199.264 18.5335 199.422 15.1456 199.422 12.9219H197.422ZM196.956 22.9307C196.645 27.4038 196.069 32.851 195.227 39.2763L197.21 39.5362C198.056 33.0865 198.636 27.5962 198.951 23.0693L196.956 22.9307ZM195.227 39.2763C194.387 45.6893 193.266 52.3856 191.863 59.3655L193.824 59.7595C195.234 52.7394 196.363 45.9982 197.21 39.5362L195.227 39.2763ZM192.337 60.4244L193.134 60.8932L194.148 59.1693L193.351 58.7006L192.337 60.4244ZM194.45 60.6181C196.945 57.1764 199.341 53.3925 201.639 49.268L199.892 48.2945C197.628 52.3575 195.274 56.0736 192.831 59.4444L194.45 60.6181ZM201.641 49.2652C203.939 45.1085 205.774 41.2371 207.138 37.6525L205.269 36.9412C203.945 40.4191 202.154 44.204 199.891 48.2973L201.641 49.2652ZM206.44 36.3254L202.409 35.341L201.935 37.284L205.966 38.2683L206.44 36.3254ZM203.157 36.1387C202.795 34.0869 202.609 31.6322 202.609 28.7656H200.609C200.609 31.7115 200.799 34.2881 201.187 36.4863L203.157 36.1387ZM202.609 28.7656V27.0781H200.609V28.7656H202.609ZM202.393 27.6988C203.481 26.3253 204.993 25.0934 206.963 24.0185L206.006 22.2627C203.851 23.4378 202.113 24.831 200.825 26.4574L202.393 27.6988ZM206.958 24.0215C208.869 22.9947 211.289 22.4531 214.266 22.4531V20.4531C211.055 20.4531 208.288 21.0365 206.011 22.2597L206.958 24.0215ZM214.266 22.4531C216.358 22.4531 218.115 22.8505 219.57 23.6062L220.492 21.8313C218.698 20.8995 216.611 20.4531 214.266 20.4531V22.4531ZM219.584 23.6132C221.049 24.3458 222.151 25.3584 222.922 26.6524L224.64 25.6288C223.661 23.9853 222.263 22.7167 220.478 21.8243L219.584 23.6132ZM222.922 26.6524C223.695 27.9491 224.094 29.4558 224.094 31.2031H226.094C226.094 29.138 225.618 27.2697 224.64 25.6288L222.922 26.6524ZM224.094 31.2031C224.094 32.5375 223.891 33.7872 223.491 34.9581L225.384 35.6044C225.859 34.2128 226.094 32.7437 226.094 31.2031H224.094ZM223.494 34.9509C223.086 36.1169 222.465 37.3786 221.62 38.7373L223.318 39.7939C224.222 38.3402 224.914 36.9456 225.381 35.6116L223.494 34.9509ZM221.623 38.7316C219.413 42.231 215.53 47.2489 209.942 53.8044L211.464 55.1018C217.064 48.5324 221.024 43.4253 223.314 39.7996L221.623 38.7316ZM209.889 55.0344C211.783 57.6856 213.637 60.0001 215.451 61.9737L216.924 60.6201C215.176 58.7186 213.373 56.4706 211.517 53.8719L209.889 55.0344ZM216.635 62.1913C217.416 61.8008 218.137 61.2893 218.797 60.6635L217.422 59.2115C216.895 59.7107 216.334 60.1054 215.74 60.4025L216.635 62.1913ZM218.778 60.6808C219.439 60.0862 220.261 59.2461 221.239 58.1738L219.761 56.8262C218.801 57.8789 218.03 58.6638 217.44 59.1942L218.778 60.6808ZM221.223 58.1912L222.254 57.1131L220.809 55.7307L219.777 56.8088L221.223 58.1912ZM220.928 57.2195L226.694 61.5789L227.9 59.9836L222.134 55.6242L220.928 57.2195ZM226.298 60.742C226.083 66.201 224.905 70.2224 222.885 72.934L224.49 74.1285C226.845 70.9651 228.073 66.4865 228.296 60.8205L226.298 60.742ZM222.884 72.9354C220.913 75.5922 218.349 76.8906 215.109 76.8906V78.8906C218.994 78.8906 222.149 77.2828 224.491 74.1271L222.884 72.9354ZM215.109 76.8906C211.415 76.8906 208.797 75.7769 207.067 73.6899L205.527 74.9663C207.735 77.6294 210.991 78.8906 215.109 78.8906V76.8906ZM207.067 73.6899C205.238 71.4833 203.85 68.2953 202.963 64.0458L201.005 64.4542C201.931 68.8922 203.419 72.423 205.527 74.9663L207.067 73.6899ZM201.25 63.5712C197.821 67.2808 194.804 70.3912 192.196 72.9052L193.585 74.3448C196.228 71.7963 199.273 68.6567 202.719 64.9288L201.25 63.5712ZM192.197 72.905C190.907 74.1478 189.851 75.1153 189.023 75.8139C188.168 76.5355 187.632 76.9052 187.362 77.0295L188.2 78.8455C188.743 78.5948 189.465 78.0582 190.313 77.3423C191.188 76.6035 192.28 75.6022 193.585 74.345L192.197 72.905ZM187.781 76.9375C186.142 76.9375 184.586 76.7439 183.111 76.3603L182.608 78.2959C184.258 78.7249 185.983 78.9375 187.781 78.9375V76.9375ZM183.111 76.3603C181.669 75.9855 180.723 75.4246 180.15 74.7555L178.631 76.057C179.558 77.1379 180.924 77.8582 182.608 78.2959L183.111 76.3603ZM180.388 75.329C180.045 70.9073 179.812 66.5328 179.687 62.2056L177.688 62.2631C177.813 66.6235 178.049 71.0302 178.394 75.4835L180.388 75.329ZM179.687 62.213C179.594 57.8471 179.547 52.6827 179.547 46.7188H177.547C177.547 52.6923 177.594 57.8716 177.688 62.2558L179.687 62.213Z" fill="#FF0000"/>
</svg>
